PathFileType	4	(X/Y/Z)	 2.5Hzlow3min.trc
DataRate	CameraRate	NumFrames	NumMarkers	Units	OrigDataRate	OrigDataStartFrame	OrigNumFrames
200	200	11	35	m	200	126	1000
Frame#	Time	C7			LSH			RSH			MAN			RASI			LASI			HIPR			HIPL			RPSI			LPSI			COX			RTHI1			RTHI2			RTHI3			RTHI4			RSHA1			RSHA2			RSHA3			RSHA4			RHEEL			RMET5			RMET1			RTOE			LTHI1			LTHI2			LTHI3			LTHI4			LSHA1			LSHA2			LSHA3			LSHA4			LHEEL			LMET5			LMET1			LTOE			
		X1	Y1	Z1	X2	Y2	Z2	X3	Y3	Z3	X4	Y4	Z4	X5	Y5	Z5	X6	Y6	Z6	X7	Y7	Z7	X8	Y8	Z8	X9	Y9	Z9	X10	Y10	Z10	X11	Y11	Z11	X12	Y12	Z12	X13	Y13	Z13	X14	Y14	Z14	X15	Y15	Z15	X16	Y16	Z16	X17	Y17	Z17	X18	Y18	Z18	X19	Y19	Z19	X20	Y20	Z20	X21	Y21	Z21	X22	Y22	Z22	X23	Y23	Z23	X24	Y24	Z24	X25	Y25	Z25	X26	Y26	Z26	X27	Y27	Z27	X28	Y28	Z28	X29	Y29	Z29	X30	Y30	Z30	X31	Y31	Z31	X32	Y32	Z32	X33	Y33	Z33	X34	Y34	Z34	X35	Y35	Z35	
126	0.6300	-0.259787	1.608893	-0.497502	-0.231213	1.589293	-0.724240	-0.212078	1.587133	-0.304364	-0.114852	1.530313	-0.514023	-0.135862	1.077626	-0.393578	-0.143821	1.075822	-0.620222	-0.198533	1.142738	-0.340856	-0.225025	1.141798	-0.670034	-0.322423	1.107602	-0.440590	-0.329107	1.109040	-0.550084	-0.331668	1.113897	-0.494261	-0.203212	0.874295	-0.308494	-0.184936	0.818198	-0.296418	-0.122621	0.832172	-0.308445	-0.133115	0.891439	-0.321937	-0.293875	0.320619	-0.289138	-0.309207	0.281154	-0.298131	-0.250346	0.266170	-0.299629	-0.239671	0.304188	-0.294537	-0.405902	0.062563	-0.353078	-0.230205	0.024801	-0.265422	-0.178963	0.041382	-0.357413	-0.146684	0.030472	-0.351898	-0.214823	0.829973	-0.711287	-0.189199	0.774760	-0.722262	-0.127868	0.797181	-0.723172	-0.145725	0.853267	-0.713034	-0.307159	0.306983	-0.712341	-0.322198	0.270284	-0.704001	-0.262081	0.251173	-0.706687	-0.254659	0.294596	-0.715996	-0.410932	0.068768	-0.643526	-0.235498	0.023555	-0.735471	-0.188522	0.042268	-0.656187	-0.153050	0.030115	-0.659371	
127	0.6350	-0.259818	1.608296	-0.497391	-0.231586	1.588462	-0.724272	-0.212120	1.586326	-0.304161	-0.114824	1.529982	-0.514066	-0.135744	1.076749	-0.393760	-0.144017	1.074897	-0.620361	-0.198540	1.141879	-0.340719	-0.225350	1.140826	-0.669897	-0.322375	1.107073	-0.440346	-0.329232	1.108448	-0.549829	-0.331653	1.113422	-0.494035	-0.202675	0.873935	-0.308265	-0.184306	0.817831	-0.296172	-0.122063	0.831818	-0.308485	-0.132657	0.891072	-0.322003	-0.293479	0.320347	-0.289136	-0.308701	0.281007	-0.298056	-0.249901	0.265904	-0.299638	-0.239173	0.303915	-0.294549	-0.405840	0.062613	-0.353190	-0.230201	0.024803	-0.265434	-0.178862	0.041396	-0.357429	-0.146602	0.030474	-0.351892	-0.214279	0.829403	-0.711286	-0.188433	0.774298	-0.722223	-0.127181	0.796921	-0.722929	-0.145263	0.852940	-0.712813	-0.306450	0.306900	-0.711789	-0.321538	0.270242	-0.703431	-0.261453	0.251024	-0.706253	-0.253978	0.294423	-0.715558	-0.410571	0.068931	-0.642742	-0.235485	0.023626	-0.735343	-0.188274	0.042250	-0.656175	-0.152763	0.030124	-0.659439	
128	0.6400	-0.259879	1.608122	-0.497281	-0.231989	1.588129	-0.724279	-0.212164	1.585991	-0.303983	-0.114801	1.530124	-0.514126	-0.135534	1.076464	-0.393927	-0.144130	1.074558	-0.620502	-0.198393	1.141621	-0.340614	-0.225597	1.140455	-0.669788	-0.322236	1.107052	-0.440107	-0.329265	1.108332	-0.549591	-0.331570	1.113388	-0.493820	-0.202092	0.873977	-0.308090	-0.183637	0.817877	-0.295989	-0.121498	0.831856	-0.308590	-0.132167	0.891094	-0.322127	-0.293253	0.320459	-0.289164	-0.308332	0.281227	-0.298038	-0.249592	0.266037	-0.299611	-0.238824	0.304081	-0.294553	-0.405708	0.063022	-0.353265	-0.230169	0.024805	-0.265465	-0.178726	0.041400	-0.357435	-0.146495	0.030478	-0.351900	-0.213666	0.829265	-0.711245	-0.187614	0.774247	-0.722111	-0.126435	0.797053	-0.722561	-0.144728	0.853010	-0.712483	-0.305851	0.307081	-0.711248	-0.320978	0.270475	-0.702905	-0.260920	0.251163	-0.705827	-0.253405	0.294567	-0.715136	-0.410180	0.069343	-0.642137	-0.235448	0.023698	-0.735215	-0.188010	0.042235	-0.656165	-0.152490	0.030139	-0.659488	
129	0.6450	-0.259976	1.608370	-0.497169	-0.232417	1.588303	-0.724248	-0.212214	1.586144	-0.303821	-0.114786	1.530718	-0.514191	-0.135229	1.076739	-0.394063	-0.144129	1.074846	-0.620640	-0.198084	1.141945	-0.340538	-0.225756	1.140696	-0.669701	-0.322000	1.107514	-0.439880	-0.329192	1.108672	-0.549373	-0.331405	1.113779	-0.493620	-0.201485	0.874447	-0.307934	-0.183009	0.818343	-0.295834	-0.120949	0.832260	-0.308741	-0.131667	0.891489	-0.322281	-0.293175	0.320936	-0.289240	-0.308132	0.281796	-0.298094	-0.249428	0.266546	-0.299538	-0.238653	0.304639	-0.294484	-0.405523	0.063745	-0.353280	-0.230116	0.024808	-0.265509	-0.178579	0.041399	-0.357433	-0.146376	0.030480	-0.351921	-0.213038	0.829539	-0.711166	-0.186812	0.774583	-0.721940	-0.125688	0.797537	-0.722095	-0.144165	0.853439	-0.712079	-0.305384	0.307556	-0.710828	-0.320532	0.270945	-0.702461	-0.260492	0.251574	-0.705450	-0.252953	0.294998	-0.714748	-0.409793	0.069953	-0.641728	-0.235392	0.023769	-0.735097	-0.187753	0.042225	-0.656154	-0.152249	0.030155	-0.659511	
130	0.6500	-0.260111	1.609030	-0.497055	-0.232852	1.588980	-0.724180	-0.212227	1.586837	-0.303649	-0.114777	1.531729	-0.514251	-0.134821	1.077545	-0.394160	-0.144041	1.075664	-0.620748	-0.197613	1.142829	-0.340483	-0.225807	1.141545	-0.669629	-0.321661	1.108430	-0.439667	-0.329007	1.109463	-0.549174	-0.331143	1.114573	-0.493435	-0.200927	0.875288	-0.307784	-0.182452	0.819198	-0.295649	-0.120440	0.833015	-0.308910	-0.131182	0.892244	-0.322444	-0.293215	0.321729	-0.289401	-0.308121	0.282710	-0.298189	-0.249413	0.267409	-0.299424	-0.238660	0.305555	-0.294417	-0.405298	0.064727	-0.353202	-0.230044	0.024807	-0.265564	-0.178446	0.041369	-0.357418	-0.146260	0.030481	-0.351949	-0.212451	0.830209	-0.711049	-0.186091	0.775291	-0.721715	-0.125009	0.798334	-0.721568	-0.143620	0.854200	-0.711628	-0.305068	0.308276	-0.710520	-0.320217	0.271633	-0.702116	-0.260180	0.252247	-0.705126	-0.252640	0.295695	-0.714411	-0.409422	0.070757	-0.641551	-0.235325	0.023833	-0.734990	-0.187517	0.042218	-0.656140	-0.152054	0.030169	-0.659511	
131	0.6550	-0.260274	1.610102	-0.496938	-0.233281	1.590140	-0.724081	-0.212235	1.587995	-0.303537	-0.114781	1.533137	-0.514300	-0.134336	1.078826	-0.394200	-0.143854	1.076994	-0.620819	-0.196983	1.144245	-0.340458	-0.225732	1.142972	-0.669566	-0.321215	1.109772	-0.439473	-0.328699	1.110682	-0.549003	-0.330782	1.115760	-0.493265	-0.200420	0.876475	-0.307662	-0.181951	0.820381	-0.295517	-0.120002	0.834091	-0.309062	-0.130734	0.893324	-0.322587	-0.293382	0.322850	-0.289580	-0.308281	0.283871	-0.298288	-0.249537	0.268565	-0.299276	-0.238825	0.306754	-0.294310	-0.405027	0.065954	-0.353045	-0.229963	0.024806	-0.265622	-0.178338	0.041329	-0.357397	-0.146161	0.030480	-0.351982	-0.211954	0.831251	-0.710889	-0.185520	0.776338	-0.721432	-0.124456	0.799409	-0.721002	-0.143140	0.855271	-0.711159	-0.304920	0.309214	-0.710314	-0.320054	0.272529	-0.701886	-0.260007	0.253166	-0.704878	-0.252487	0.296640	-0.714135	-0.409077	0.071722	-0.641586	-0.235249	0.023887	-0.734895	-0.187320	0.042209	-0.656124	-0.151914	0.030183	-0.659493	
132	0.6600	-0.260460	1.611571	-0.496823	-0.233690	1.591759	-0.723961	-0.212233	1.589597	-0.303443	-0.114794	1.534930	-0.514337	-0.133758	1.080539	-0.394199	-0.143567	1.078713	-0.620857	-0.196210	1.146148	-0.340467	-0.225512	1.144916	-0.669493	-0.320667	1.111504	-0.439291	-0.328265	1.112315	-0.548861	-0.330318	1.117326	-0.493104	-0.199981	0.878004	-0.307565	-0.181564	0.821905	-0.295397	-0.119661	0.835479	-0.309180	-0.130336	0.894721	-0.322695	-0.293671	0.324233	-0.289753	-0.308557	0.285267	-0.298360	-0.249787	0.269996	-0.299087	-0.239142	0.308247	-0.294186	-0.404703	0.067401	-0.352832	-0.229874	0.024803	-0.265681	-0.178260	0.041291	-0.357359	-0.146087	0.030480	-0.352017	-0.211588	0.832656	-0.710675	-0.185148	0.777712	-0.721094	-0.124075	0.800752	-0.720424	-0.142760	0.856623	-0.710690	-0.304954	0.310353	-0.710181	-0.320052	0.273612	-0.701760	-0.259982	0.254322	-0.704711	-0.252507	0.297835	-0.713927	-0.408757	0.072851	-0.641815	-0.235166	0.023931	-0.734815	-0.187166	0.042195	-0.656108	-0.151830	0.030196	-0.659464	
133	0.6650	-0.260664	1.613422	-0.496712	-0.234068	1.593804	-0.723830	-0.212216	1.591632	-0.303363	-0.114825	1.537094	-0.514361	-0.133079	1.082638	-0.394169	-0.143157	1.080839	-0.620861	-0.195320	1.148491	-0.340499	-0.225130	1.147299	-0.669411	-0.320026	1.113607	-0.439110	-0.327717	1.114336	-0.548744	-0.329755	1.119244	-0.492961	-0.199652	0.879892	-0.307456	-0.181348	0.823756	-0.295279	-0.119436	0.837147	-0.309250	-0.130005	0.896412	-0.322757	-0.294084	0.325862	-0.289903	-0.308936	0.286808	-0.298453	-0.250143	0.271668	-0.298847	-0.239589	0.309959	-0.294010	-0.404309	0.069019	-0.352595	-0.229779	0.024799	-0.265736	-0.178213	0.041257	-0.357309	-0.146044	0.030482	-0.352050	-0.211384	0.834420	-0.710408	-0.185012	0.779415	-0.720709	-0.123903	0.802342	-0.719857	-0.142510	0.858254	-0.710241	-0.305190	0.311716	-0.710170	-0.320220	0.274882	-0.701725	-0.260105	0.255730	-0.704647	-0.252709	0.299263	-0.713785	-0.408451	0.074157	-0.642236	-0.235081	0.023966	-0.734749	-0.187055	0.042176	-0.656096	-0.151800	0.030208	-0.659429	
134	0.6700	-0.260880	1.615632	-0.496611	-0.234403	1.596240	-0.723699	-0.212184	1.594069	-0.303301	-0.114873	1.539600	-0.514372	-0.132317	1.085106	-0.394122	-0.142630	1.083273	-0.620821	-0.194334	1.151220	-0.340547	-0.224587	1.150066	-0.669315	-0.319290	1.116056	-0.438932	-0.327064	1.116728	-0.548649	-0.329100	1.121504	-0.492830	-0.199441	0.882073	-0.307375	-0.181289	0.825887	-0.295161	-0.119344	0.839075	-0.309257	-0.129746	0.898379	-0.322765	-0.294643	0.327694	-0.289989	-0.309422	0.288488	-0.298515	-0.250592	0.273553	-0.298564	-0.240157	0.311917	-0.293801	-0.403837	0.070811	-0.352331	-0.229676	0.024791	-0.265780	-0.178204	0.041234	-0.357235	-0.146035	0.030485	-0.352080	-0.211355	0.836532	-0.710089	-0.185124	0.781432	-0.720277	-0.123954	0.804168	-0.719330	-0.142404	0.860153	-0.709823	-0.305630	0.313257	-0.710196	-0.320557	0.276333	-0.701767	-0.260383	0.257358	-0.704659	-0.253096	0.300918	-0.713710	-0.408145	0.075656	-0.642824	-0.234995	0.023994	-0.734694	-0.186979	0.042150	-0.656093	-0.151820	0.030213	-0.659392	
135	0.6750	-0.261103	1.618181	-0.496520	-0.234691	1.599028	-0.723574	-0.212173	1.596864	-0.303270	-0.114952	1.542457	-0.514373	-0.131487	1.087917	-0.394044	-0.142007	1.086018	-0.620727	-0.193273	1.154283	-0.340607	-0.223888	1.153143	-0.669204	-0.318468	1.118825	-0.438753	-0.326316	1.119465	-0.548566	-0.328369	1.124088	-0.492704	-0.199315	0.884598	-0.307293	-0.181346	0.828324	-0.295107	-0.119392	0.841244	-0.309200	-0.129563	0.900595	-0.322713	-0.295378	0.329714	-0.289934	-0.310004	0.290315	-0.298499	-0.251123	0.275627	-0.298231	-0.240836	0.314052	-0.293543	-0.403277	0.072777	-0.352066	-0.229568	0.024788	-0.265807	-0.178204	0.041230	-0.357161	-0.146058	0.030487	-0.352108	-0.211497	0.838967	-0.709718	-0.185487	0.783739	-0.719812	-0.124226	0.806227	-0.718855	-0.142448	0.862306	-0.709448	-0.306263	0.314981	-0.710246	-0.321055	0.277963	-0.701871	-0.260810	0.259215	-0.704769	-0.253666	0.302802	-0.713701	-0.407823	0.077337	-0.643535	-0.234905	0.024017	-0.734645	-0.186929	0.042120	-0.656101	-0.151878	0.030215	-0.659356	
136	0.6800	-0.261332	1.621030	-0.496442	-0.234934	1.602134	-0.723457	-0.212175	1.599993	-0.303230	-0.115056	1.545637	-0.514364	-0.130576	1.091061	-0.393967	-0.141260	1.089044	-0.620586	-0.192153	1.157634	-0.340664	-0.223030	1.156476	-0.669070	-0.317578	1.121894	-0.438565	-0.325487	1.122517	-0.548491	-0.327573	1.126979	-0.492574	-0.199300	0.887411	-0.307228	-0.181616	0.831036	-0.295101	-0.119578	0.843640	-0.309081	-0.129458	0.903048	-0.322604	-0.296254	0.331894	-0.289761	-0.310687	0.292340	-0.298399	-0.251741	0.277910	-0.297828	-0.241628	0.316396	-0.293222	-0.402634	0.074882	-0.351765	-0.229449	0.024788	-0.265818	-0.178213	0.041246	-0.357073	-0.146110	0.030490	-0.352132	-0.211801	0.841725	-0.709303	-0.186080	0.786340	-0.719327	-0.124709	0.808518	-0.718448	-0.142631	0.864705	-0.709120	-0.307066	0.316883	-0.710302	-0.321700	0.279773	-0.702014	-0.261370	0.261295	-0.704944	-0.254401	0.304918	-0.713753	-0.407466	0.079196	-0.644336	-0.234815	0.024037	-0.734599	-0.186898	0.042089	-0.656123	-0.151969	0.030212	-0.659321	
